<svg width="11" height="11" viewBox="0 0 11 11" fill="none" xmlns="http://www.w3.org/2000/svg">
<g clip-path="url(#clip0_2738_838)">
<path d="M5.50008 8.70825C5.59073 8.70825 5.67935 8.68137 5.75472 8.63101C5.83009 8.58065 5.88884 8.50906 5.92353 8.42531C5.95822 8.34157 5.96729 8.24941 5.94961 8.1605C5.93192 8.07159 5.88827 7.98993 5.82417 7.92583C5.76007 7.86173 5.67841 7.81808 5.5895 7.80039C5.50059 7.78271 5.40843 7.79178 5.32468 7.82647C5.24094 7.86116 5.16935 7.91991 5.11899 7.99528C5.06863 8.07065 5.04175 8.15927 5.04175 8.24992C5.04175 8.37148 5.09004 8.48806 5.17599 8.57401C5.26195 8.65996 5.37852 8.70825 5.50008 8.70825ZM7.79175 8.70825C7.8824 8.70825 7.97101 8.68137 8.04638 8.63101C8.12176 8.58065 8.1805 8.50906 8.21519 8.42531C8.24988 8.34157 8.25896 8.24941 8.24127 8.1605C8.22359 8.07159 8.17994 7.98993 8.11584 7.92583C8.05174 7.86173 7.97007 7.81808 7.88117 7.80039C7.79226 7.78271 7.7001 7.79178 7.61635 7.82647C7.5326 7.86116 7.46102 7.91991 7.41066 7.99528C7.3603 8.07065 7.33342 8.15927 7.33342 8.24992C7.33342 8.37148 7.3817 8.48806 7.46766 8.57401C7.55361 8.65996 7.67019 8.70825 7.79175 8.70825ZM7.79175 6.87492C7.8824 6.87492 7.97101 6.84804 8.04638 6.79768C8.12176 6.74731 8.1805 6.67573 8.21519 6.59198C8.24988 6.50823 8.25896 6.41608 8.24127 6.32717C8.22359 6.23826 8.17994 6.15659 8.11584 6.09249C8.05174 6.0284 7.97007 5.98474 7.88117 5.96706C7.79226 5.94937 7.7001 5.95845 7.61635 5.99314C7.5326 6.02783 7.46102 6.08658 7.41066 6.16195C7.3603 6.23732 7.33342 6.32594 7.33342 6.41658C7.33342 6.53814 7.3817 6.65472 7.46766 6.74068C7.55361 6.82663 7.67019 6.87492 7.79175 6.87492ZM5.50008 6.87492C5.59073 6.87492 5.67935 6.84804 5.75472 6.79768C5.83009 6.74731 5.88884 6.67573 5.92353 6.59198C5.95822 6.50823 5.96729 6.41608 5.94961 6.32717C5.93192 6.23826 5.88827 6.15659 5.82417 6.09249C5.76007 6.0284 5.67841 5.98474 5.5895 5.96706C5.50059 5.94937 5.40843 5.95845 5.32468 5.99314C5.24094 6.02783 5.16935 6.08658 5.11899 6.16195C5.06863 6.23732 5.04175 6.32594 5.04175 6.41658C5.04175 6.53814 5.09004 6.65472 5.17599 6.74068C5.26195 6.82663 5.37852 6.87492 5.50008 6.87492ZM8.70842 1.37492H8.25008V0.916585C8.25008 0.795028 8.20179 0.678449 8.11584 0.592495C8.02988 0.50654 7.91331 0.458252 7.79175 0.458252C7.67019 0.458252 7.55361 0.50654 7.46766 0.592495C7.3817 0.678449 7.33342 0.795028 7.33342 0.916585V1.37492H3.66675V0.916585C3.66675 0.795028 3.61846 0.678449 3.53251 0.592495C3.44655 0.50654 3.32997 0.458252 3.20841 0.458252C3.08686 0.458252 2.97028 0.50654 2.88432 0.592495C2.79837 0.678449 2.75008 0.795028 2.75008 0.916585V1.37492H2.29175C1.92708 1.37492 1.57734 1.51978 1.31948 1.77765C1.06161 2.03551 0.916748 2.38525 0.916748 2.74992V9.16658C0.916748 9.53126 1.06161 9.88099 1.31948 10.1389C1.57734 10.3967 1.92708 10.5416 2.29175 10.5416H8.70842C9.07309 10.5416 9.42282 10.3967 9.68069 10.1389C9.93855 9.88099 10.0834 9.53126 10.0834 9.16658V2.74992C10.0834 2.38525 9.93855 2.03551 9.68069 1.77765C9.42282 1.51978 9.07309 1.37492 8.70842 1.37492ZM9.16675 9.16658C9.16675 9.28814 9.11846 9.40472 9.03251 9.49068C8.94655 9.57663 8.82997 9.62492 8.70842 9.62492H2.29175C2.17019 9.62492 2.05361 9.57663 1.96766 9.49068C1.8817 9.40472 1.83341 9.28814 1.83341 9.16658V5.04158H9.16675V9.16658ZM9.16675 4.12492H1.83341V2.74992C1.83341 2.62836 1.8817 2.51178 1.96766 2.42583C2.05361 2.33987 2.17019 2.29159 2.29175 2.29159H2.75008V2.74992C2.75008 2.87148 2.79837 2.98805 2.88432 3.07401C2.97028 3.15996 3.08686 3.20825 3.20841 3.20825C3.32997 3.20825 3.44655 3.15996 3.53251 3.07401C3.61846 2.98805 3.66675 2.87148 3.66675 2.74992V2.29159H7.33342V2.74992C7.33342 2.87148 7.3817 2.98805 7.46766 3.07401C7.55361 3.15996 7.67019 3.20825 7.79175 3.20825C7.91331 3.20825 8.02988 3.15996 8.11584 3.07401C8.20179 2.98805 8.25008 2.87148 8.25008 2.74992V2.29159H8.70842C8.82997 2.29159 8.94655 2.33987 9.03251 2.42583C9.11846 2.51178 9.16675 2.62836 9.16675 2.74992V4.12492ZM3.20841 6.87492C3.29906 6.87492 3.38768 6.84804 3.46305 6.79768C3.53842 6.74731 3.59717 6.67573 3.63186 6.59198C3.66655 6.50823 3.67563 6.41608 3.65794 6.32717C3.64026 6.23826 3.5966 6.15659 3.53251 6.09249C3.46841 6.0284 3.38674 5.98474 3.29783 5.96706C3.20892 5.94937 3.11677 5.95845 3.03302 5.99314C2.94927 6.02783 2.87769 6.08658 2.82732 6.16195C2.77696 6.23732 2.75008 6.32594 2.75008 6.41658C2.75008 6.53814 2.79837 6.65472 2.88432 6.74068C2.97028 6.82663 3.08686 6.87492 3.20841 6.87492ZM3.20841 8.70825C3.29906 8.70825 3.38768 8.68137 3.46305 8.63101C3.53842 8.58065 3.59717 8.50906 3.63186 8.42531C3.66655 8.34157 3.67563 8.24941 3.65794 8.1605C3.64026 8.07159 3.5966 7.98993 3.53251 7.92583C3.46841 7.86173 3.38674 7.81808 3.29783 7.80039C3.20892 7.78271 3.11677 7.79178 3.03302 7.82647C2.94927 7.86116 2.87769 7.91991 2.82732 7.99528C2.77696 8.07065 2.75008 8.15927 2.75008 8.24992C2.75008 8.37148 2.79837 8.48806 2.88432 8.57401C2.97028 8.65996 3.08686 8.70825 3.20841 8.70825Z" fill="#FFA454"/>
</g>
<defs>
<clipPath id="clip0_2738_838">
<rect width="11" height="11" fill="white"/>
</clipPath>
</defs>
</svg>
