<svg width="22" height="22" viewBox="0 0 22 22" fill="none" xmlns="http://www.w3.org/2000/svg">
<path d="M2.81201 4.34168C2.81201 4.16778 2.88109 4.00099 3.00406 3.87803C3.12703 3.75506 3.29381 3.68597 3.46772 3.68597H3.95556C4.78613 3.68597 5.28446 4.24464 5.5686 4.76396C5.75832 5.11017 5.89558 5.51146 6.00312 5.87516C6.0322 5.87286 6.06137 5.8717 6.09054 5.87166H17.0172C17.7429 5.87166 18.2675 6.56584 18.0681 7.26438L16.4699 12.8676C16.3267 13.3702 16.0235 13.8124 15.6064 14.1273C15.1893 14.4422 14.681 14.6126 14.1584 14.6127H8.95817C8.43141 14.6127 7.91922 14.4397 7.50034 14.1203C7.08145 13.801 6.77904 13.3528 6.63959 12.8449L5.97514 10.4214L4.87355 6.70747L4.87268 6.70048C4.73629 6.20476 4.60865 5.74052 4.41806 5.39431C4.23533 5.05771 4.08845 4.99739 3.95644 4.99739H3.46772C3.29381 4.99739 3.12703 4.9283 3.00406 4.80534C2.88109 4.68237 2.81201 4.51558 2.81201 4.34168ZM7.24721 10.1032L7.90379 12.4978C8.03493 12.9717 8.46595 13.3013 8.95817 13.3013H14.1584C14.3959 13.3013 14.627 13.2238 14.8166 13.0808C15.0062 12.9377 15.1441 12.7367 15.2092 12.5083L16.7279 7.18308H6.38343L7.23497 10.0568L7.24721 10.1032Z" fill="#535399"/>
<path d="M10.2432 17.2373C10.2432 17.701 10.059 18.1458 9.73106 18.4737C9.40314 18.8016 8.95839 18.9858 8.49464 18.9858C8.0309 18.9858 7.58615 18.8016 7.25823 18.4737C6.93032 18.1458 6.74609 17.701 6.74609 17.2373C6.74609 16.7735 6.93032 16.3288 7.25823 16.0008C7.58615 15.6729 8.0309 15.4887 8.49464 15.4887C8.95839 15.4887 9.40314 15.6729 9.73106 16.0008C10.059 16.3288 10.2432 16.7735 10.2432 17.2373ZM8.93178 17.2373C8.93178 17.1213 8.88573 17.0101 8.80375 16.9282C8.72177 16.8462 8.61058 16.8001 8.49464 16.8001C8.37871 16.8001 8.26752 16.8462 8.18554 16.9282C8.10356 17.0101 8.05751 17.1213 8.05751 17.2373C8.05751 17.3532 8.10356 17.4644 8.18554 17.5464C8.26752 17.6283 8.37871 17.6744 8.49464 17.6744C8.61058 17.6744 8.72177 17.6283 8.80375 17.5464C8.88573 17.4644 8.93178 17.3532 8.93178 17.2373Z" fill="#535399"/>
<path d="M16.3628 17.2373C16.3628 17.701 16.1786 18.1458 15.8507 18.4737C15.5228 18.8016 15.078 18.9858 14.6143 18.9858C14.1505 18.9858 13.7058 18.8016 13.3779 18.4737C13.0499 18.1458 12.8657 17.701 12.8657 17.2373C12.8657 16.7735 13.0499 16.3288 13.3779 16.0008C13.7058 15.6729 14.1505 15.4887 14.6143 15.4887C15.078 15.4887 15.5228 15.6729 15.8507 16.0008C16.1786 16.3288 16.3628 16.7735 16.3628 17.2373ZM15.0514 17.2373C15.0514 17.1213 15.0054 17.0101 14.9234 16.9282C14.8414 16.8462 14.7302 16.8001 14.6143 16.8001C14.4983 16.8001 14.3871 16.8462 14.3052 16.9282C14.2232 17.0101 14.1771 17.1213 14.1771 17.2373C14.1771 17.3532 14.2232 17.4644 14.3052 17.5464C14.3871 17.6283 14.4983 17.6744 14.6143 17.6744C14.7302 17.6744 14.8414 17.6283 14.9234 17.5464C15.0054 17.4644 15.0514 17.3532 15.0514 17.2373Z" fill="#535399"/>
</svg>
