<svg width="16" height="16" viewBox="0 0 16 16" fill="none" xmlns="http://www.w3.org/2000/svg">
<path d="M12.6667 2.66663H3.33334C2.80291 2.66663 2.2942 2.87734 1.91913 3.25241C1.54406 3.62749 1.33334 4.13619 1.33334 4.66663V11.3333C1.33334 11.8637 1.54406 12.3724 1.91913 12.7475C2.2942 13.1226 2.80291 13.3333 3.33334 13.3333H12.6667C13.1971 13.3333 13.7058 13.1226 14.0809 12.7475C14.456 12.3724 14.6667 11.8637 14.6667 11.3333V4.66663C14.6667 4.13619 14.456 3.62749 14.0809 3.25241C13.7058 2.87734 13.1971 2.66663 12.6667 2.66663ZM3.33334 3.99996H12.6667C12.8435 3.99996 13.0131 4.0702 13.1381 4.19522C13.2631 4.32025 13.3333 4.48981 13.3333 4.66663L8.00001 7.91996L2.66668 4.66663C2.66668 4.48981 2.73691 4.32025 2.86194 4.19522C2.98696 4.0702 3.15653 3.99996 3.33334 3.99996ZM13.3333 11.3333C13.3333 11.5101 13.2631 11.6797 13.1381 11.8047C13.0131 11.9297 12.8435 12 12.6667 12H3.33334C3.15653 12 2.98696 11.9297 2.86194 11.8047C2.73691 11.6797 2.66668 11.5101 2.66668 11.3333V6.18663L7.65334 9.23329C7.75469 9.2918 7.86965 9.32261 7.98668 9.32261C8.1037 9.32261 8.21866 9.2918 8.32001 9.23329L13.3333 6.18663V11.3333Z" fill="white"/>
</svg>
