<svg width="15" height="15" viewBox="0 0 15 15" fill="none" xmlns="http://www.w3.org/2000/svg">
<path d="M13.28 2.26542C12.528 1.51317 11.531 1.05581 10.4702 0.97652C9.40951 0.897226 8.35555 1.20126 7.50003 1.83333C6.59879 1.16299 5.47703 0.859029 4.36064 0.982652C3.24426 1.10627 2.21618 1.6483 1.48343 2.49958C0.750683 3.35086 0.367698 4.44816 0.4116 5.57051C0.455502 6.69286 0.923028 7.75689 1.72003 8.54833L6.99712 13.8254C7.06296 13.8918 7.14131 13.9445 7.22762 13.9805C7.31394 14.0164 7.40652 14.0349 7.50003 14.0349C7.59354 14.0349 7.68612 14.0164 7.77244 13.9805C7.85876 13.9445 7.9371 13.8918 8.00295 13.8254L13.28 8.54833C13.6927 8.13589 14.0201 7.64616 14.2435 7.10713C14.4669 6.56811 14.5819 5.99035 14.5819 5.40687C14.5819 4.8234 14.4669 4.24564 14.2435 3.70662C14.0201 3.16759 13.6927 2.67786 13.28 2.26542ZM12.2813 7.54958L7.50003 12.3237L2.71878 7.54958C2.29745 7.12649 2.01043 6.58841 1.89374 6.00282C1.77704 5.41724 1.83587 4.81023 2.06283 4.25795C2.2898 3.70567 2.67479 3.23271 3.16953 2.8984C3.66426 2.56409 4.2467 2.38331 4.84378 2.37875C5.64145 2.3807 6.40573 2.69915 6.96878 3.26417C7.03463 3.33056 7.11297 3.38325 7.19929 3.41921C7.28561 3.45518 7.37819 3.47369 7.4717 3.47369C7.56521 3.47369 7.65779 3.45518 7.74411 3.41921C7.83042 3.38325 7.90877 3.33056 7.97462 3.26417C8.55426 2.76188 9.30309 2.49856 10.0695 2.52752C10.836 2.55647 11.5628 2.87554 12.1029 3.42013C12.643 3.96473 12.956 4.69418 12.9786 5.46084C13.0012 6.22751 12.7317 6.97413 12.2246 7.54958H12.2813Z" fill="#2F1AC4"/>
</svg>
