<svg width="12" height="12" viewBox="0 0 12 12" fill="none" xmlns="http://www.w3.org/2000/svg">
<path d="M12 6C12 9.31371 9.31371 12 6 12C2.68629 12 0 9.31371 0 6C0 2.68629 2.68629 0 6 0C9.31371 0 12 2.68629 12 6Z" fill="#FB2E86"/>
<path d="M8.62242 4.57764C8.61919 4.33528 8.57382 4.09533 8.48834 3.86852C8.41421 3.67721 8.30099 3.50347 8.15591 3.35839C8.01083 3.21331 7.83709 3.10009 7.64578 3.02596C7.42189 2.94192 7.18535 2.89647 6.94626 2.89156C6.63842 2.8778 6.54082 2.87396 5.75938 2.87396C4.97794 2.87396 4.87778 2.87396 4.57218 2.89156C4.33319 2.89651 4.09677 2.94195 3.87298 3.02596C3.68164 3.10004 3.50786 3.21324 3.36278 3.35832C3.2177 3.50341 3.10449 3.67718 3.03042 3.86852C2.9462 4.09224 2.90086 4.32872 2.89634 4.56772C2.88258 4.87588 2.87842 4.97348 2.87842 5.75492C2.87842 6.53636 2.87842 6.6362 2.89634 6.94212C2.90114 7.18148 2.94626 7.41764 3.03042 7.64196C3.10462 7.83325 3.2179 8.00695 3.36304 8.15197C3.50817 8.29699 3.68196 8.41015 3.8733 8.4842C4.09648 8.57163 4.33294 8.62032 4.5725 8.6282C4.88066 8.64196 4.97826 8.64612 5.7597 8.64612C6.54114 8.64612 6.6413 8.64612 6.9469 8.6282C7.18599 8.62349 7.42253 8.57815 7.64642 8.49412C7.83768 8.41991 8.01138 8.30666 8.15645 8.16159C8.30151 8.01652 8.41476 7.84282 8.48898 7.65156C8.57314 7.42756 8.61826 7.1914 8.62306 6.95172C8.63682 6.64388 8.64098 6.54628 8.64098 5.76452C8.64034 4.98308 8.64034 4.88388 8.62242 4.57764ZM5.75746 7.23268C4.94018 7.23268 4.2781 6.5706 4.2781 5.75332C4.2781 4.93604 4.94018 4.27396 5.75746 4.27396C6.14981 4.27396 6.52609 4.42982 6.80352 4.70726C7.08096 4.98469 7.23682 5.36097 7.23682 5.75332C7.23682 6.14567 7.08096 6.52195 6.80352 6.79939C6.52609 7.07682 6.14981 7.23268 5.75746 7.23268ZM7.2957 4.5642C7.10466 4.5642 6.95074 4.40996 6.95074 4.21924C6.95074 4.17396 6.95966 4.12913 6.97698 4.08729C6.99431 4.04546 7.01971 4.00745 7.05173 3.97543C7.08374 3.94341 7.12176 3.91802 7.16359 3.90069C7.20542 3.88336 7.25026 3.87444 7.29554 3.87444C7.34082 3.87444 7.38565 3.88336 7.42749 3.90069C7.46932 3.91802 7.50733 3.94341 7.53935 3.97543C7.57137 4.00745 7.59676 4.04546 7.61409 4.08729C7.63142 4.12913 7.64034 4.17396 7.64034 4.21924C7.64034 4.40996 7.4861 4.5642 7.2957 4.5642Z" fill="white"/>
<path d="M5.75784 6.71416C6.28856 6.71416 6.7188 6.28392 6.7188 5.7532C6.7188 5.22247 6.28856 4.79224 5.75784 4.79224C5.22711 4.79224 4.79688 5.22247 4.79688 5.7532C4.79688 6.28392 5.22711 6.71416 5.75784 6.71416Z" fill="white"/>
</svg>
