<svg width="18" height="19" viewBox="0 0 18 19" fill="none" xmlns="http://www.w3.org/2000/svg">
<path d="M11.209 8.19711H9.00027V5.98842C9.00027 5.79316 8.9227 5.60589 8.78463 5.46782C8.64656 5.32975 8.45929 5.25219 8.26403 5.25219C8.06877 5.25219 7.88151 5.32975 7.74344 5.46782C7.60537 5.60589 7.5278 5.79316 7.5278 5.98842V8.19711H5.31911C5.12384 8.19711 4.93658 8.27468 4.79851 8.41275C4.66044 8.55082 4.58287 8.73808 4.58287 8.93334C4.58287 9.12861 4.66044 9.31587 4.79851 9.45394C4.93658 9.59201 5.12384 9.66958 5.31911 9.66958H7.5278V11.8783C7.5278 12.0735 7.60537 12.2608 7.74344 12.3989C7.88151 12.5369 8.06877 12.6145 8.26403 12.6145C8.45929 12.6145 8.64656 12.5369 8.78463 12.3989C8.9227 12.2608 9.00027 12.0735 9.00027 11.8783V9.66958H11.209C11.4042 9.66958 11.5915 9.59201 11.7296 9.45394C11.8676 9.31587 11.9452 9.12861 11.9452 8.93334C11.9452 8.73808 11.8676 8.55082 11.7296 8.41275C11.5915 8.27468 11.4042 8.19711 11.209 8.19711ZM16.1491 15.7729L13.4177 13.0636C14.4779 11.7416 14.9914 10.0637 14.8524 8.37477C14.7135 6.68585 13.9328 5.11435 12.6708 3.9834C11.4088 2.85244 9.76139 2.248 8.0674 2.29435C6.37342 2.34071 4.76157 3.03433 3.5633 4.23261C2.36502 5.43088 1.67139 7.04273 1.62504 8.73671C1.57869 10.4307 2.18313 12.0781 3.31408 13.3401C4.44504 14.6021 6.01654 15.3828 7.70545 15.5217C9.39437 15.6607 11.0723 15.1472 12.3943 14.087L15.1036 16.7963C15.1721 16.8653 15.2535 16.9201 15.3432 16.9575C15.4329 16.9948 15.5292 17.0141 15.6264 17.0141C15.7235 17.0141 15.8198 16.9948 15.9095 16.9575C15.9992 16.9201 16.0806 16.8653 16.1491 16.7963C16.2818 16.659 16.356 16.4756 16.356 16.2846C16.356 16.0937 16.2818 15.9102 16.1491 15.7729ZM8.26403 14.087C7.24474 14.087 6.24834 13.7847 5.40083 13.2184C4.55332 12.6521 3.89277 11.8473 3.50271 10.9056C3.11264 9.96385 3.01058 8.92763 3.20944 7.92792C3.40829 6.92822 3.89912 6.00993 4.61987 5.28918C5.34062 4.56844 6.25891 4.0776 7.25861 3.87875C8.25832 3.67989 9.29454 3.78195 10.2362 4.17202C11.1779 4.56208 11.9828 5.22264 12.5491 6.07014C13.1154 6.91765 13.4177 7.91405 13.4177 8.93334C13.4177 10.3002 12.8747 11.611 11.9082 12.5775C10.9417 13.544 9.63086 14.087 8.26403 14.087Z" fill="#535399"/>
</svg>
